<?xml version="1.0" encoding="iso-8859-1"?>
<!-- Generator: Adobe Illustrator 19.0.0, SVG Export Plug-In . SVG Version: 6.00 Build 0)  -->
<svg xmlns="http://www.w3.org/2000/svg" xmlns:xlink="http://www.w3.org/1999/xlink" version="1.1" id="Layer_1" x="0px" y="0px" viewBox="0 0 512 512" style="enable-background:new 0 0 512 512;" xml:space="preserve" width="512px" height="512px">
<g>
	<g>
		<path d="M459.536,316.436c-5.875-3.435-12.167-5.543-18.528-6.433V201.992c6.361-0.89,12.654-2.995,18.528-6.429    c11.695-6.839,20.011-17.809,23.416-30.891c3.397-13.053,1.495-26.645-5.357-38.274c-14.146-24.006-45.256-32.076-69.349-17.991    c-3.083,1.803-5.924,3.9-8.508,6.24l-93.255-68.499C304.248,20.332,282.468,0,256,0c-26.468,0-48.249,20.332-50.482,46.147    l-93.255,68.5c-2.586-2.34-5.426-4.437-8.508-6.24c-24.094-14.086-55.204-6.015-69.349,17.992    c-6.852,11.628-8.754,25.222-5.357,38.274c3.405,13.083,11.72,24.053,23.416,30.891c5.875,3.435,12.167,5.539,18.528,6.429    v108.011c-6.361,0.89-12.653,2.997-18.528,6.432c-11.695,6.839-20.011,17.809-23.416,30.891    c-3.397,13.053-1.495,26.645,5.357,38.274c9.43,16.002,26.391,24.923,43.793,24.923c8.705,0,17.523-2.235,25.555-6.932    c3.083-1.803,5.924-3.9,8.508-6.24l93.255,68.5C207.752,491.668,229.532,512,256,512c26.467,0,48.248-20.332,50.482-46.147    l93.255-68.5c2.586,2.34,5.426,4.437,8.508,6.24c8.035,4.698,16.85,6.932,25.555,6.932c17.4,0,34.365-8.922,43.793-24.923    c6.852-11.628,8.754-25.222,5.357-38.274C479.547,334.245,471.23,323.273,459.536,316.436z M400.988,143.506    c1.23-4.727,3.427-9.038,6.414-12.73c0.023-0.03,0.05-0.056,0.072-0.087c0.006-0.007,0.009-0.014,0.014-0.021    c2.529-3.101,5.619-5.762,9.184-7.847c5.397-3.156,11.316-4.656,17.164-4.656c11.672,0,23.051,5.982,29.373,16.71    c4.582,7.777,5.856,16.866,3.584,25.593c-2.278,8.755-7.849,16.101-15.685,20.683c-16.17,9.455-37.049,4.049-46.537-12.054    C399.99,161.321,398.717,152.232,400.988,143.506z M256,16.696c18.741,0,33.989,15.174,33.989,33.826    c0,18.652-15.248,33.825-33.989,33.825c-18.741,0-33.989-15.174-33.989-33.826S237.259,16.696,256,16.696z M207.554,65.369    c5.58,18.057,21.062,31.819,40.099,34.977v18.265c0,4.611,3.738,8.348,8.348,8.348c4.61,0,8.348-3.736,8.348-8.348v-18.265    c19.036-3.159,34.519-16.92,40.1-34.977l84.942,62.394c-1.965,3.601-3.5,7.466-4.559,11.537    c-2.629,10.099-2.07,20.518,1.484,30.103l-72.387,41.75c-11.366-15.922-29.157-26.974-49.578-29.368v-24.678    c0-4.611-3.738-8.348-8.348-8.348c-4.61,0-8.348,3.736-8.348,8.348v24.678c-20.356,2.386-38.098,13.374-49.469,29.213    l-72.491-41.611c3.549-9.581,4.106-19.995,1.478-30.088c-1.06-4.07-2.596-7.936-4.559-11.537L207.554,65.369z M310.371,252.107    c0,29.849-24.39,54.131-54.371,54.131s-54.372-24.282-54.372-54.131c0-29.848,24.391-54.131,54.372-54.131    S310.371,222.258,310.371,252.107z M60.892,181.151c-7.837-4.581-13.408-11.927-15.686-20.683    c-2.272-8.727-0.998-17.817,3.584-25.593c9.488-16.104,30.363-21.511,46.537-12.054c3.565,2.085,6.654,4.746,9.185,7.847    c0.006,0.007,0.009,0.014,0.014,0.021c0.022,0.031,0.049,0.057,0.072,0.087c2.987,3.692,5.185,8.003,6.414,12.73    c2.272,8.726,0.998,17.815-3.584,25.591C97.942,185.199,77.064,190.606,60.892,181.151z M111.012,368.494    c-1.221,4.693-3.395,8.973-6.349,12.646c-0.045,0.058-0.095,0.11-0.138,0.169c-0.006,0.007-0.009,0.014-0.014,0.021    c-2.529,3.102-5.619,5.763-9.184,7.848c-16.171,9.455-37.049,4.049-46.537-12.054c-4.582-7.777-5.856-16.866-3.584-25.593    c2.278-8.755,7.849-16.101,15.685-20.683c5.397-3.155,11.316-4.656,17.164-4.656c11.672,0,23.051,5.982,29.373,16.71    C112.01,350.679,113.282,359.767,111.012,368.494z M87.688,310.441v-108.87c11.425-2.201,22.038-8.294,29.709-17.693    l72.713,41.738c-3.327,8.19-5.177,17.126-5.177,26.49c0,11.075,2.569,21.561,7.136,30.906l-74.758,44.976    C109.649,318.659,99.064,312.633,87.688,310.441z M207.553,446.631l-84.942-62.394c1.965-3.601,3.501-7.467,4.56-11.538    c2.64-10.145,2.064-20.614-1.535-30.235l75.482-45.412c11.375,13.771,27.861,23.186,46.534,25.375v89.226    C228.616,414.812,213.133,428.574,207.553,446.631z M256,495.304c-18.741,0-33.989-15.174-33.989-33.826    c0-18.652,15.248-33.826,33.989-33.826c18.741,0,33.989,15.174,33.989,33.826C289.989,480.13,274.741,495.304,256,495.304z     M304.447,446.631c-5.581-18.057-21.063-31.817-40.1-34.977v-89.226c18.688-2.19,35.183-11.619,46.56-25.409l75.458,45.442    c-3.6,9.622-4.176,20.092-1.536,30.238c1.06,4.07,2.596,7.937,4.56,11.538L304.447,446.631z M394.692,327.986l-74.741-45.01    c4.556-9.335,7.117-19.809,7.117-30.869c0-9.297-1.824-18.172-5.107-26.313l72.653-41.903c7.67,9.392,18.278,15.481,29.699,17.681    v108.87C412.938,312.632,402.354,318.658,394.692,327.986z M463.21,377.125c-9.488,16.102-30.366,21.511-46.537,12.054    c-3.565-2.085-6.654-4.746-9.185-7.847c-0.006-0.007-0.009-0.014-0.014-0.021c-0.045-0.06-0.095-0.114-0.14-0.171    c-2.953-3.673-5.127-7.954-6.347-12.644c-2.272-8.727-0.998-17.815,3.584-25.591c9.487-16.102,30.364-21.511,46.537-12.054    c7.836,4.581,13.407,11.927,15.685,20.683C469.065,360.259,467.792,369.348,463.21,377.125z" fill="#FFFFFF"/>
	</g>
</g>
<g>
</g>
<g>
</g>
<g>
</g>
<g>
</g>
<g>
</g>
<g>
</g>
<g>
</g>
<g>
</g>
<g>
</g>
<g>
</g>
<g>
</g>
<g>
</g>
<g>
</g>
<g>
</g>
<g>
</g>
</svg>
